<svg width="12" height="10" viewBox="0 0 12 10" fill="none" xmlns="http://www.w3.org/2000/svg">
<path d="M11.5 0H10.5C10.3674 0 10.2402 0.0526785 10.1464 0.146447C10.0527 0.240215 10 0.367392 10 0.5V5H3.33L4.77 3.56C4.81656 3.51438 4.85356 3.45992 4.87881 3.39982C4.90406 3.33972 4.91707 3.27519 4.91707 3.21C4.91707 3.14481 4.90406 3.08028 4.87881 3.02018C4.85356 2.96008 4.81656 2.90562 4.77 2.86L4.06 2.15C4.01352 2.10314 3.95822 2.06594 3.89729 2.04055C3.83636 2.01517 3.77101 2.0021 3.705 2.0021C3.63899 2.0021 3.57364 2.01517 3.51271 2.04055C3.45178 2.06594 3.39648 2.10314 3.35 2.15L0.22 5.28C0.0811161 5.42172 0.00230401 5.61159 0 5.81V6.19C0.000175052 6.38884 0.0793075 6.57948 0.22 6.72L3.36 9.85C3.40648 9.89686 3.46178 9.93406 3.52271 9.95945C3.58364 9.98483 3.64899 9.9979 3.715 9.9979C3.78101 9.9979 3.84636 9.98483 3.90729 9.95945C3.96822 9.93406 4.02352 9.89686 4.07 9.85L4.78 9.15C4.82686 9.10352 4.86406 9.04822 4.88945 8.98729C4.91483 8.92636 4.9279 8.86101 4.9279 8.795C4.9279 8.72899 4.91483 8.66364 4.88945 8.60271C4.86406 8.54178 4.82686 8.48648 4.78 8.44L3.33 7H10C10.5304 7 11.0391 6.78929 11.4142 6.41421C11.7893 6.03914 12 5.53043 12 5V0.5C12 0.367392 11.9473 0.240215 11.8536 0.146447C11.7598 0.0526785 11.6326 0 11.5 0Z" fill="#104865"/>
</svg>
